<svg width="40" height="41" viewBox="0 0 40 41" fill="none" xmlns="http://www.w3.org/2000/svg">
<path d="M6.66691 16.7882H15.3336C15.7022 16.7882 16.0002 16.4612 16.0002 16.0583C16.0002 15.6554 15.7022 15.3284 15.3336 15.3284H6.66691C6.29824 15.3284 6.00024 15.6554 6.00024 16.0583C6.00024 16.4612 6.29824 16.7882 6.66691 16.7882Z" fill="white"/>
<path d="M24.0002 19.7075H6.66691C6.29824 19.7075 6.00024 20.0345 6.00024 20.4374C6.00024 20.8403 6.29824 21.1674 6.66691 21.1674H24.0002C24.3689 21.1674 24.6669 20.8403 24.6669 20.4374C24.6669 20.0345 24.3689 19.7075 24.0002 19.7075Z" fill="white"/>
<path d="M24.0002 24.0873H6.66691C6.29824 24.0873 6.00024 24.4143 6.00024 24.8172C6.00024 25.2201 6.29824 25.5471 6.66691 25.5471H24.0002C24.3689 25.5471 24.6669 25.2201 24.6669 24.8172C24.6669 24.4143 24.3689 24.0873 24.0002 24.0873Z" fill="white"/>
<path d="M36.048 0.0510943L13.2867 0C11.1067 0 9.33333 1.94158 9.33333 4.3284V8.0685L3.95333 8.0809C1.77333 8.0809 0 10.0225 0 12.4093V27.8405C0 30.2273 1.77333 32.1681 3.95333 32.1681H8V39.4673C8 39.7688 8.16933 40.0396 8.42667 40.1483C8.50467 40.1812 8.586 40.1972 8.66667 40.1972C8.85067 40.1972 9.03133 40.1133 9.16 39.9585L15.6293 32.1667L26.7133 32.1171C28.8933 32.1171 30.6667 30.1755 30.6667 27.7894V27.7069L34.1733 31.9302C34.302 32.0849 34.4827 32.1689 34.6667 32.1689C34.7473 32.1689 34.8287 32.1528 34.9067 32.12C35.164 32.0112 35.3333 31.7404 35.3333 31.439V24.1398H36.0467C38.2267 24.1398 40 22.1982 40 19.8121V4.3795C40 1.9934 38.2273 0.0518242 36.048 0.0510943ZM29.3333 27.7886C29.3333 29.3704 28.158 30.6565 26.7107 30.6565L15.3307 30.7076C15.144 30.7083 14.9653 30.7952 14.84 30.9463L9.33333 37.579V31.4375C9.33333 31.0346 9.03533 30.7076 8.66667 30.7076H3.95333C2.50867 30.7076 1.33333 29.4207 1.33333 27.8397V12.4086C1.33333 10.8268 2.50867 9.54001 3.95467 9.54001L10 9.52614C10.0007 9.52614 10.0007 9.52614 10.0013 9.52614L26.7133 9.48818C28.158 9.48818 29.3333 10.775 29.3333 12.3568V25.8171V27.7886ZM38.6667 19.8107C38.6667 21.3924 37.4913 22.6785 36.0467 22.6785H34.6667C34.298 22.6785 34 23.0055 34 23.4084V29.5499L30.6667 25.5354V12.3575C30.6667 9.97066 28.8933 8.02908 26.712 8.02908L10.6667 8.06485V4.32767C10.6667 2.74595 11.842 1.4591 13.2853 1.4591L36.046 1.5102C36.0467 1.5102 36.0467 1.5102 36.0473 1.5102C37.492 1.5102 38.6673 2.79704 38.6673 4.37877L38.6667 19.8107Z" fill="white"/>
</svg>
