<svg width="42" height="42" viewBox="0 0 42 42" fill="none" xmlns="http://www.w3.org/2000/svg">
<path d="M41.0001 32.8796C41.0001 34.6225 39.2402 36.0329 37.0669 36.0329" stroke="white" stroke-miterlimit="2.6131" stroke-linecap="round" stroke-linejoin="round"/>
<path d="M37.0669 36.0327H4.93481" stroke="white" stroke-miterlimit="2.6131" stroke-linecap="round" stroke-linejoin="round"/>
<path d="M4.93492 36.0329C2.76336 36.0329 1 34.6225 1 32.8796" stroke="white" stroke-miterlimit="2.6131" stroke-linecap="round" stroke-linejoin="round"/>
<path d="M1 32.8796C1 31.1395 2.76336 29.729 4.93492 29.729" stroke="white" stroke-miterlimit="2.6131" stroke-linecap="round" stroke-linejoin="round"/>
<path d="M4.93481 29.7291H37.0669" stroke="white" stroke-miterlimit="2.6131" stroke-linecap="round" stroke-linejoin="round"/>
<path d="M37.0669 29.7291C39.2402 29.7291 41.0001 31.1394 41.0001 32.8797" stroke="white" stroke-miterlimit="2.6131" stroke-linecap="round" stroke-linejoin="round"/>
<path d="M34.9133 14.1197C34.9133 5.12557 28.0616 0.963501 21.0635 1.00259" stroke="white" stroke-miterlimit="2.6131" stroke-linecap="round" stroke-linejoin="round"/>
<path d="M21.0635 1.00215V1" stroke="white" stroke-miterlimit="2.6131" stroke-linecap="round" stroke-linejoin="round"/>
<path d="M21.0634 1C21.0406 1 21.0194 1.00146 20.9982 1.00146C20.9788 1.00146 20.956 1 20.9365 1" stroke="white" stroke-miterlimit="2.6131" stroke-linecap="round" stroke-linejoin="round"/>
<path d="M20.9365 1V1.00215" stroke="white" stroke-miterlimit="2.6131" stroke-linecap="round" stroke-linejoin="round"/>
<path d="M20.9367 1.00259C13.9385 0.963501 7.08537 5.12557 7.08537 14.1197C7.45633 26.2254 5.14795 29.7266 5.14795 29.7266" stroke="white" stroke-miterlimit="2.6131" stroke-linecap="round" stroke-linejoin="round"/>
<path d="M5.14795 29.7264H20.9367H21.0635H36.8521" stroke="white" stroke-miterlimit="2.6131" stroke-linecap="round" stroke-linejoin="round"/>
<path d="M36.852 29.7263C36.852 29.7263 34.5423 26.2251 34.9131 14.1194" stroke="white" stroke-miterlimit="2.6131" stroke-linecap="round" stroke-linejoin="round"/>
<path d="M16.9478 36.137C16.6908 36.5893 16.5364 37.0897 16.5364 37.6204C16.5364 39.5951 18.5355 41.1972 21 41.1972C23.466 41.1972 25.465 39.5953 25.465 37.6204C25.465 37.0899 25.3107 36.5893 25.0521 36.137" stroke="white" stroke-miterlimit="2.6131" stroke-linecap="round" stroke-linejoin="round"/>
<path d="M25.0524 36.137H16.948" stroke="white" stroke-miterlimit="2.6131" stroke-linecap="round" stroke-linejoin="round"/>
</svg>
