<!-- icon666.com - MILLIONS vector ICONS FREE --><svg viewBox="-31 1 511 511.99999" xmlns="http://www.w3.org/2000/svg"><path d="m433.105469 512h-416.222657c-9.042968 0-16.382812-7.339844-16.382812-16.382812v-479.234376c0-9.042968 7.339844-16.382812 16.382812-16.382812h416.222657c9.054687 0 16.394531 7.339844 16.394531 16.382812 0 9.042969-7.339844 16.382813-16.394531 16.382813h-399.839844v446.46875h383.457031v-414.671875c0-9.050781 7.332032-16.382812 16.382813-16.382812 9.054687 0 16.394531 7.339843 16.394531 16.382812v431.054688c0 9.042968-7.339844 16.382812-16.394531 16.382812zm0 0"></path><path d="m342.746094 140.433594h-235.492188c-9.050781 0-16.382812-7.339844-16.382812-16.382813s7.339844-16.382812 16.382812-16.382812h235.5c9.050782 0 16.382813 7.339843 16.382813 16.382812s-7.339844 16.382813-16.390625 16.382813zm0 0"></path><path d="m342.746094 228.433594h-235.492188c-9.050781 0-16.382812-7.335938-16.382812-16.382813 0-9.042969 7.339844-16.382812 16.382812-16.382812h235.5c9.050782 0 16.382813 7.339843 16.382813 16.382812 0 9.046875-7.339844 16.382813-16.390625 16.382813zm0 0"></path><path d="m342.746094 316.367188h-235.492188c-9.050781 0-16.382812-7.332032-16.382812-16.382813 0-9.054687 7.339844-16.394531 16.382812-16.394531h235.5c9.050782 0 16.382813 7.339844 16.382813 16.394531 0 9.050781-7.339844 16.382813-16.390625 16.382813zm0 0"></path><path d="m232.707031 404.339844h-125.453125c-9.050781 0-16.382812-7.328125-16.382812-16.382813 0-9.050781 7.339844-16.390625 16.382812-16.390625h125.453125c9.050781 0 16.390625 7.339844 16.390625 16.390625 0 9.054688-7.339844 16.382813-16.390625 16.382813zm0 0"></path></svg>