<!-- icon666.com - MILLIONS vector ICONS FREE --><svg viewBox="-66 0 512 512" xmlns="http://www.w3.org/2000/svg"><path d="m380 10c0-5.523438-4.476562-10-10-10h-360c-5.523438 0-10 4.476562-10 10v492c0 5.523438 4.476562 10 10 10h291.996094c2.617187 0 5.222656-1.078125 7.074218-2.929688l68-68c1.847657-1.847656 2.929688-4.453124 2.929688-7.070312zm-360 10h340v404h-58c-5.523438 0-10 4.476562-10 10v58h-272zm292 457.855469v-33.855469h33.855469zm0 0"></path><path d="m50 60h120c5.523438 0 10-4.476562 10-10s-4.476562-10-10-10h-120c-5.523438 0-10 4.476562-10 10s4.476562 10 10 10zm0 0"></path><path d="m180 90c0-5.511719-4.488281-10-10-10h-80c-5.511719 0-10 4.488281-10 10s4.488281 10 10 10h80c5.511719 0 10-4.488281 10-10zm0 0"></path><path d="m50 100c5.511719 0 10-4.488281 10-10s-4.488281-10-10-10-10 4.488281-10 10 4.488281 10 10 10zm0 0"></path><path d="m120 154c0 5.523438 4.476562 10 10 10h120c5.523438 0 10-4.476562 10-10s-4.476562-10-10-10h-120c-5.523438 0-10 4.476562-10 10zm0 0"></path><path d="m200 194c0 5.511719 4.480469 10 10 10h80c5.511719 0 10-4.488281 10-10s-4.488281-10-10-10h-80c-5.519531 0-10 4.488281-10 10zm0 0"></path><path d="m50 204h80c5.511719 0 10-4.488281 10-10s-4.488281-10-10-10h-80c-5.511719 0-10 4.488281-10 10s4.488281 10 10 10zm0 0"></path><path d="m330 204c5.511719 0 10-4.488281 10-10s-4.488281-10-10-10c-5.519531 0-10 4.488281-10 10s4.480469 10 10 10zm0 0"></path><path d="m180 194c0-5.511719-4.488281-10-10-10s-10 4.488281-10 10 4.488281 10 10 10 10-4.488281 10-10zm0 0"></path><path d="m116 250c0 5.511719 4.488281 10 10 10h80c5.511719 0 10-4.488281 10-10s-4.488281-10-10-10h-80c-5.511719 0-10 4.488281-10 10zm0 0"></path><path d="m340 250c0-5.511719-4.488281-10-10-10h-44c-5.511719 0-10 4.488281-10 10s4.488281 10 10 10h44c5.511719 0 10-4.488281 10-10zm0 0"></path><path d="m256 250c0-5.511719-4.488281-10-10-10-5.519531 0-10 4.488281-10 10s4.480469 10 10 10c5.511719 0 10-4.488281 10-10zm0 0"></path><path d="m150 300h40c5.523438 0 10-4.476562 10-10s-4.476562-10-10-10h-40c-5.523438 0-10 4.476562-10 10s4.476562 10 10 10zm0 0"></path><path d="m50 300h60c5.523438 0 10-4.476562 10-10s-4.476562-10-10-10h-60c-5.523438 0-10 4.476562-10 10s4.476562 10 10 10zm0 0"></path><path d="m300 290c0-5.523438-4.476562-10-10-10h-60c-5.523438 0-10 4.476562-10 10s4.476562 10 10 10h60c5.523438 0 10-4.476562 10-10zm0 0"></path><path d="m180 340h60c5.523438 0 10-4.476562 10-10s-4.476562-10-10-10h-60c-5.523438 0-10 4.476562-10 10s4.476562 10 10 10zm0 0"></path><path d="m50 340h90c5.523438 0 10-4.476562 10-10s-4.476562-10-10-10h-90c-5.523438 0-10 4.476562-10 10s4.476562 10 10 10zm0 0"></path><path d="m330 340c5.523438 0 10-4.476562 10-10s-4.476562-10-10-10h-50c-5.523438 0-10 4.476562-10 10s4.476562 10 10 10zm0 0"></path><path d="m90 360h-40c-5.511719 0-10 4.488281-10 10s4.488281 10 10 10h40c5.511719 0 10-4.488281 10-10s-4.488281-10-10-10zm0 0"></path><path d="m120 370c0 5.511719 4.488281 10 10 10s10-4.488281 10-10-4.488281-10-10-10-10 4.488281-10 10zm0 0"></path><path d="m250 360h-80c-5.511719 0-10 4.488281-10 10s4.488281 10 10 10h80c5.511719 0 10-4.488281 10-10s-4.488281-10-10-10zm0 0"></path><path d="m70 452h-20c-5.523438 0-10 4.476562-10 10s4.476562 10 10 10h20c5.523438 0 10-4.476562 10-10s-4.476562-10-10-10zm0 0"></path><path d="m150 452h-40c-5.523438 0-10 4.476562-10 10s4.476562 10 10 10h40c5.523438 0 10-4.476562 10-10s-4.476562-10-10-10zm0 0"></path><path d="m250 452h-60c-5.523438 0-10 4.476562-10 10s4.476562 10 10 10h60c5.523438 0 10-4.476562 10-10s-4.476562-10-10-10zm0 0"></path></svg>