<?xml version="1.0" encoding="UTF-8"?>
<!DOCTYPE svg PUBLIC "-//W3C//DTD SVG 1.1//EN" "http://www.w3.org/Graphics/SVG/1.1/DTD/svg11.dtd">
<svg xmlns="http://www.w3.org/2000/svg" version="1.1" width="512px" height="512px" style="shape-rendering:geometricPrecision; text-rendering:geometricPrecision; image-rendering:optimizeQuality; fill-rule:evenodd; clip-rule:evenodd" xmlns:xlink="http://www.w3.org/1999/xlink">
<g><path style="opacity:0.967" fill="#000000" d="M 340.5,-0.5 C 350.167,-0.5 359.833,-0.5 369.5,-0.5C 419.755,8.58513 451.255,37.9185 464,87.5C 469.628,121.321 461.962,151.655 441,178.5C 359.833,259 278.667,339.5 197.5,420C 165.023,445.163 132.023,445.83 98.5,422C 70.9347,394.599 65.768,363.432 83,328.5C 85.3333,325.167 87.6667,321.833 90,318.5C 160.5,248.667 231,178.833 301.5,109C 302.5,108.333 303.5,108.333 304.5,109C 312.667,117.167 320.833,125.333 329,133.5C 329.667,134.167 329.667,134.833 329,135.5C 258.333,205.5 187.667,275.5 117,345.5C 106.958,363.62 109.458,379.786 124.5,394C 139.5,404 154.5,404 169.5,394C 249.972,315.195 330.139,236.028 410,156.5C 430.417,130.748 433.417,103.081 419,73.5C 397.234,40.9077 367.4,30.0743 329.5,41C 322.544,44.1446 315.877,47.8112 309.5,52C 227.695,132.138 146.195,212.638 65,293.5C 36.7054,327.201 30.0387,364.868 45,406.5C 67.7657,453.978 105.599,476.478 158.5,474C 182.889,470.801 204.222,461.134 222.5,445C 309.528,358.305 396.861,271.972 484.5,186C 485.167,185.333 485.833,185.333 486.5,186C 494.702,194.369 503.035,202.536 511.5,210.5C 511.5,211.167 511.5,211.833 511.5,212.5C 420.507,302.66 329.34,392.66 238,482.5C 237.667,482.167 237.333,481.833 237,481.5C 215.444,497.851 191.277,507.851 164.5,511.5C 153.167,511.5 141.833,511.5 130.5,511.5C 67.4251,502.027 25.5918,467.027 5,406.5C 2.69067,397.451 0.857338,388.451 -0.5,379.5C -0.5,370.5 -0.5,361.5 -0.5,352.5C 2.75273,325.248 12.5861,300.581 29,278.5C 29.3333,277.167 29.6667,275.833 30,274.5C 113.472,192.695 196.639,110.528 279.5,28C 297.09,12.537 317.424,3.03704 340.5,-0.5 Z"/></g>
</svg>
