<!-- icon666.com - MILLIONS vector ICONS FREE --><svg id="Line" viewBox="0 0 64 64" xmlns="http://www.w3.org/2000/svg"><path d="m47.5 7a3.0187 3.0187 0 0 0 -5.12113-2.121l-25 24.99938a2.99948 2.99948 0 0 0 0 4.24267l25 25a3.01981 3.01981 0 0 0 5.121-2.12123 2.97824 2.97824 0 0 0 -.87885-2.121l-22.87883-22.87882 22.8789-22.87842a2.9806 2.9806 0 0 0 .87891-2.12158zm-2.293.707-23.58591 23.586a.99964.99964 0 0 0 0 1.41406l23.58591 23.5864a.99117.99117 0 0 1 .293.70654 1.01036 1.01036 0 0 1 -1.70705.707l-25-25.00044a1.004 1.004 0 0 1 0-1.41357l25-25a1.0001 1.0001 0 0 1 1.41405 1.41401z"></path></svg>